<?xml version="1.0" encoding="utf-8"?>
<!-- Generator: Adobe Illustrator 27.3.1, SVG Export Plug-In . SVG Version: 6.00 Build 0)  -->
<svg version="1.1" id="Layer_1" xmlns="http://www.w3.org/2000/svg" xmlns:xlink="http://www.w3.org/1999/xlink" x="0px" y="0px"
	 viewBox="0 0 438.97 229.94" style="enable-background:new 0 0 438.97 229.94;" xml:space="preserve">
<g>
	<path d="M357.92,196.1c-0.05-3.74-0.34-7.5-0.29-11.28c0.05-3.82-0.01-7.64,0.2-11.46c0.19-3.53,0.4-7.06,0.9-10.57
		c0.05-0.34,0.08-0.67-0.18-0.89c-0.36-0.31-0.6,0.06-0.8,0.26c-0.62,0.64-1.32,0.58-2.1,0.39c-6.33-1.56-12.2-4.27-18.08-6.98
		c-1.59-0.73-3.14-1.61-4.88-1.96c-0.56-0.11-0.91-0.49-1.23-0.89c-0.45-0.57-0.45-0.86,0.35-1.32c2.19-1.24,4.31-0.31,6.41,0
		c3.36,0.5,6.74,0.83,10.1,1.28c0.82,0.11,1.23,0.01,0.85-0.94c-0.19-0.46-0.24-0.98-0.42-1.75c1.19,0.91,1.3,2.28,2.54,3.15
		c-0.73-1.62-1.28-3.02-1.73-4.47c-1.39-4.41-1.84-8.97-2.57-13.5c-0.43-2.68-0.9-5.36-1.11-8.05c-0.37-4.89-0.88-9.78-1.21-14.68
		c-0.34-5.1-0.64-10.2-0.85-15.3c-0.13-3.18-0.33-6.36-0.35-9.55c-0.02-4.63-0.21-9.26-0.24-13.9c-0.01-0.89,0.77-1.41,0.57-2.34
		c-0.59-2.67-0.59-5.39-0.49-8.11c0.14-3.95,0.32-7.9,0.82-11.82c0.64-5.13,1.62-10.2,3.22-15.12c1.72-5.26,3.93-10.28,7.93-14.3
		c1.2-1.2,2.46-2.3,3.95-3.09c6.93-3.67,14.15-5.18,21.83-2.67c3.42,1.12,6.3,3.1,8.61,5.85c3.54,4.2,5.97,9.05,7.96,14.12
		c3.01,7.68,4.8,15.7,6.53,23.75c1.29,5.99,2.11,12.03,2.88,18.09c0.65,5.1,1.07,10.24,1.36,15.39c0.3,5.35,0.29,10.7,0.18,16.05
		c-0.18,8.43-0.88,16.82-2.85,25.06c-1.04,4.34-2.17,8.65-3.32,12.96c-0.5,1.88-1.75,3.37-3.09,5.07c2.47-0.43,4.72-0.86,6.99-1.19
		c5.06-0.75,10.01-2.1,15.07-2.86c2.69-0.41,5.39-0.68,8.11-0.18c0.63,0.12,1.27,0.06,1.91-0.07c0.35-0.07,0.71-0.12,1.07-0.13
		c0.65-0.02,0.93,0.47,1.06,0.96c0.14,0.51-0.33,0.67-0.7,0.81c-2.35,0.9-4.73,1.72-7.04,2.71c-8.44,3.6-17.28,6-26.06,8.56
		c-2.37,0.69-4.66,1.67-7,2.48c-0.73,0.25-1,0.63-0.88,1.41c0.65,4.07,0.79,8.17,0.78,12.28c-0.02,7.62-0.05,15.25-0.08,22.87
		c0,0.9,0,1.8,0.13,2.72c0.54-2.17,0.86-4.37,1.35-6.54c1.13-5.04,1.78-10.19,3.92-14.97c0.66-1.48,0.64-3.2,1.46-4.65
		c0.41-0.73,0.76-1.51,1.4-2.07c0.85-0.75,1.62-0.58,2.08,0.46c0.54,1.23,0.66,2.56,0.68,3.87c0.07,5.21,0.02,10.42-0.26,15.62
		c-0.26,4.77-0.42,9.55-0.91,14.3c-0.05,0.47-0.14,0.93-0.41,1.37c-0.52-0.42-0.29-0.97-0.32-1.45c-0.31-4.63,0.12-9.25,0.26-13.87
		c0.11-3.85,0.25-7.71,0.46-11.56c0.12-2.2-0.18-4.36-0.39-6.54c-0.03-0.36-0.01-0.81-0.42-0.88c-0.34-0.06-0.48,0.37-0.62,0.64
		c-1.54,2.85-2.64,5.75-2.84,9.11c-0.21,3.51-1.2,6.97-1.77,10.47c-0.78,4.86-1.51,9.74-2.21,14.62c-0.26,1.82-0.76,3.58-1.25,5.34
		c-0.22,0.78-0.67,1.23-1.43,1.14c-0.75-0.08-0.86-0.8-0.88-1.39c-0.05-2.51-0.05-5.03-0.05-7.54c0-3.35-0.07-6.7,0.07-10.04
		c0.15-3.82,0.02-7.64,0.03-11.45c0.01-4.61,0.11-9.23-0.27-13.84c-0.18-2.18-0.07-4.38-0.47-6.54c-0.09-0.46,0.1-1.42-0.69-1.26
		c-0.8,0.16-1.86,0.19-2.15,1.38c-0.68,2.84-1.01,5.72-1.39,8.61c-0.49,3.7-1,7.4-1.37,11.11c-0.35,3.48-0.55,6.98-0.81,10.47
		c-0.39,5.19-0.54,10.4-1.14,15.58c-0.1,0.86-0.44,1.57-1.31,1.54c-1-0.03-1.23-0.95-1.22-1.77c0.09-5.2-0.18-10.4-0.25-15.6
		c-0.06-4.68-0.3-9.35-0.34-14.03c-0.05-6.57-0.23-13.14-0.52-19.7c-0.14-3.17-0.26-6.37-0.93-9.49c-0.08-0.38,0.1-1.13-0.6-1.09
		c-0.53,0.02-0.88,0.47-0.99,1.05c-0.52,2.86-1.08,5.7-1.56,8.56c-0.5,2.93-0.99,5.86-1.37,8.81c-0.29,2.29-0.37,4.61-0.6,6.9
		c-0.66,6.42-0.72,12.87-1.01,19.31c-0.14,3.13-0.23,6.27-0.25,9.41c-0.01,2.85,0.19,5.73-0.4,8.55c-0.14,0.67-0.37,1.28-1.22,1.43
		c-0.89,0.16-1.34-0.22-1.6-1c-0.23-0.7-0.2-1.44-0.14-2.14c0.25-3.22-0.23-6.45,0.03-9.66c0.16-2.03,0.21-4.14-0.07-6.04
		c-0.34-2.38-0.63-4.79-1-7.17c-0.48-3.1-0.74-6.24-1.18-9.35c-0.76-5.39-0.97-10.83-1.82-16.21c-0.29-1.84-0.54-3.7-0.79-5.55
		c-0.08-0.57-0.23-1.08-0.58-1.61c-0.65,0.41-0.58,1.11-0.69,1.68c-0.75,3.92-1.12,7.89-1.27,11.87c-0.19,5-0.47,10.01-0.35,15.01
		c0.17,6.75,0.22,13.51,0.84,20.25c0.42,4.52,0.92,9.03,1.64,13.52c0.13,0.8-0.12,1.41-0.92,1.54c-0.87,0.15-1.19-0.51-1.28-1.24
		c-0.8-6.37-2.22-12.63-3.26-18.95c-0.76-4.65-1.76-9.29-2.93-13.88c-1.03-4.04-1.87-8.13-3.2-12.08c-0.04-0.11-0.09-0.21-0.18-0.39
		c-0.39,0.6-0.43,1.23-0.47,1.83c-0.53,7.4,0.05,14.79,0.36,22.18c0.28,6.52,1,13.01,1.81,19.49c0.18,1.46,0.28,2.94,0.32,4.41
		c0.02,0.84-0.08,1.77-1.2,1.9c-1.07,0.12-1.39-0.58-1.65-1.49c-0.98-3.52-1.09-7.16-1.45-10.75c-0.42-4.15-0.83-8.31-1.09-12.47
		c-0.18-2.94-0.12-5.89-0.12-8.84c0-3.19,0.02-6.37,0.1-9.56c0.07-2.93,0.21-5.85,0.91-8.73c0.2-0.83,0.64-1.47,1.16-2.05
		c0.67-0.76,2.04-0.32,2.68,0.78c0.73,1.24,0.9,2.64,1.1,4.01c0.68,4.53,1.91,8.93,2.95,13.38
		C356.92,191.36,357.41,193.73,357.92,196.1z M425.09,149.98c-1.5-0.21-2.97,0.04-4.41,0.3c-6.96,1.23-13.86,2.8-20.86,3.84
		c-1.29,0.19-2.64,0.26-3.71,1.19c-0.13,0.11-0.4,0.31-0.48,0.03c-0.23-0.77-0.8-0.35-1.19-0.34c-0.71,0.02-1.43,0.16-2.14,0.26
		c-0.35,0.05-0.86,0.18-0.96-0.21c-0.14-0.55,0.48-0.55,0.81-0.65c1.03-0.32,2.06-0.67,3.12-0.83c1.09-0.17,1.55-0.69,1.73-1.76
		c0.5-2.93,0.32-5.9,0.54-8.84c0.57-7.66,0.16-15.31-0.36-22.94c-0.49-7.15-2.07-14.12-3.99-21.01c-1.94-6.98-3.07-14.05-2.18-21.31
		c0.43-3.46,1.13-6.86,3.17-9.81c0.55-0.79,1.22-1.46,2.03-1.97c-0.35,1.14-1.39,1.73-1.87,2.77c-2.84,6.07-2.85,12.3-1.03,18.59
		c1.38,4.76,3.71,9.17,5.46,13.8c1.53,4.04,2.82,8.13,3.56,12.4c0.7,4.01,1.04,8.05,1.27,12.34c0.28-2.75,0.66-5.24,0.78-7.74
		c0.49-10.14,0.65-20.28-0.17-30.42c-0.75-9.2-1.85-18.35-3.73-27.39c-1.72-8.29-3.71-16.52-7.13-24.31c-1.32-3-2.84-5.89-4.69-8.61
		c-0.54-0.8-1.06-0.94-1.87-0.43c-0.68,0.42-1.41,0.76-2.13,1.09c-2.3,1.04-2.53,1.67-1.57,3.98c0.69,1.65,1.39,3.31,1.83,5.06
		c0.72,2.9,0.65,5.87,0.87,8.8c0.21,2.79-0.51,5.31-2.76,7.21c-0.45,0.38-0.64,0.91-0.8,1.45c-0.06,0.19-0.1,0.42-0.33,0.46
		c-0.3,0.05-0.4-0.22-0.5-0.42c-0.49-0.94-0.15-1.65,0.57-2.33c1.92-1.84,2.72-6.03,1.59-8.29c-2.1,1.99-3.26,4.66-5.02,6.89
		c0.49-2.53,1.66-4.72,3.4-6.49c2.44-2.49,2.52-5.28,1.47-8.3c-0.55-1.58-1.25-3.11-1.78-4.7c-0.57-1.7-0.2-2.55,1.33-3.36
		c1.16-0.62,2.34-1.21,3.54-1.76c0.73-0.34,0.85-0.65,0.31-1.33c-1.22-1.52-2.74-2.68-4.36-3.71c-2.71-1.72-5.73-2.34-8.89-2.51
		c-5.6-0.31-10.5,0.93-14.05,5.75c-2.31,3.13-3.95,6.53-5.15,10.2c-1.3,3.99-2.23,8.08-2.84,12.23c-0.98,6.57-1.21,13.19-1.29,19.81
		c-0.06,4.71,0.05,9.42,0.03,14.13c0,0.97-0.14,1.92,0.39,3.09c2.02-7.01,4.01-13.82,6.52-20.46c-0.65,4.92-1.48,9.79-2.82,14.56
		c-1.07,3.8-2.13,7.61-2.94,11.48c-0.56,2.66-0.9,5.35-1.25,8.04c-0.18,1.35,0.18,1.66,1.5,1.24c0.71-0.22,1.39-0.54,2.03-0.98
		c0.68-0.47,0.69-0.87,0.32-1.56c-0.62-1.16-1.06-2.41-1.3-3.72c-0.11-0.59-0.19-1.19-0.03-1.78c0.08-0.28,0.26-0.53,0.56-0.56
		c0.38-0.04,0.43,0.28,0.48,0.56c0.42,2.3,1.7,4.2,2.88,6.13c3.18,5.18,6.91,9.97,10.42,14.92c0.94,1.32,1.38,2.94,2.76,4
		c1.51,1.16,1.41,1.23,2.2-0.61c1.82-4.26,3.03-8.74,4.72-13.05c1.56-3.98,3.62-7.73,5.13-11.73c0.2-0.52,0.69-0.69,1.18-0.61
		c0.5,0.08,0.5,0.55,0.48,0.96c-0.03,0.44-0.04,0.88-0.11,1.31c-0.53,3.27-1.23,6.51-2.19,9.69c-0.09,0.31-0.3,0.66,0.24,1.04
		c2.11-5.35,3.85-10.76,5.6-16.17c0.45,1.2,0.09,2.3-0.16,3.41c-0.97,4.37-2.32,8.63-3.53,12.93c-0.23,0.83-0.19,1.5,0.43,2.07
		c0.46,0.42,0.55,0.85,0.24,1.37c-0.4,0.65-0.23,1.14,0.4,1.49c0.27,0.15,0.4,0.34,0.4,0.67c0,0.76,0.4,0.97,1.1,0.74
		c0.86-0.29,1.24,0.12,1.17,0.94c-0.05,0.64,0.15,1.02,0.71,1.36c0.51,0.31,1.16,0.95,0.93,1.4c-0.43,0.84-0.05,1.4,0.05,2.15
		c0.17,1.22,0.66,2.31,1.29,3.14c0.92,1.23,1.18,2.35,0.77,3.75c-0.08,0.28-0.1,0.59,0.25,0.84c0.83,0.61,1.5,3.66,1.04,4.54
		c-0.11,0.2-0.29,0.38-0.48,0.52c-0.52,0.38-0.47,0.99-0.16,1.27c0.99,0.92,0.53,1.84,0.24,2.83c-0.2,0.7-0.28,1.47,0.47,1.94
		c0.85,0.54,0.99,0.98-0.04,1.45c-0.3,0.13-0.56,0.35-0.47,0.74c0.07,0.32,0.35,0.48,0.62,0.48c0.74-0.01,0.79,0.52,0.87,1.03
		c0.33,2.06-0.8,3.91-0.91,5.91c-0.01,0.1-0.11,0.22-0.2,0.29c-0.52,0.4-0.69,1.01-0.72,1.59c-0.07,1.09-0.16,2.11-0.59,3.18
		c-1.17,2.91-2.84,5.54-4.36,8.25c-0.17,0.31-0.28,0.74-0.87,0.82c0.06-2.66-0.14-5.21-0.71-7.77c-0.64-2.85-1.64-5.72-0.83-8.72
		c0.28-1.05,0.05-1.95-0.38-2.88c-0.31-0.66-0.43-1.36-0.47-2.09c-0.06-1.1,0.27-2.21-0.11-3.32c-0.13-0.37-0.01-0.75,0.6-0.77
		c0.42-0.02,1.15,0,1.16-0.58c0.01-0.51-0.7-0.55-1.12-0.74c-0.35-0.16-0.92-0.22-0.8-0.72c0.25-1-0.44-1.77-0.52-2.69
		c-0.12-1.53-0.89-2.95-0.59-4.58c0.1-0.55,0.22-1.35-0.34-1.9c-0.91-0.88-1-2.02-0.95-3.18c0.01-0.23,0.17-0.44-0.06-0.65
		c-0.74-0.67-0.96-1.63-1.37-2.48c-0.55-1.12-0.53-1.1-1.37-0.15c-1.57,1.78-2.3,4.12-3.95,5.83c-0.47,0.49-0.45,0.89-0.2,1.48
		c0.43,0.98,0.79,2.01,1.05,3.05c1.99,7.69,2.6,15.57,3.12,23.46c0.03,0.44-0.01,0.87,0.29,1.25c0.62,0.8,0.91,1.77,1.16,2.73
		c1.03,3.89,0.89,7.9,1.18,11.86c0.15,2.1-0.06,4.23,0.09,6.33c0.3,4.02,0.25,8.05,0.36,12.07c0.12,4.45,0.1,8.91,0.33,13.43
		c0.72-3.9,0.69-7.8,1.21-11.66c0.84-6.2,1.67-12.39,2.62-18.58c0.19-1.22,0.22-2.24,1.01-3.22c0.51-0.64,0.71-1.51,1.16-2.22
		c0.78-1.23,2.24-1.32,3.05-0.14c0.59,0.86,1.15,0.83,2.01,0.49c5.77-2.27,11.7-4.06,17.7-5.6
		C415.03,153.65,420.07,151.87,425.09,149.98z M364.39,123.23c0.22-0.3,0.47-0.26,0.7-0.3c1.13-0.2,1.59-0.76,1.08-1.72
		c-0.99-1.87-2.16-3.63-3.26-5.44c-0.11-0.18-0.29-0.29-0.51-0.19c-0.21,0.09-0.36,0.33-0.25,0.48c0.65,0.81,0.19,1.35-0.31,2.01
		c-0.31,0.41-0.34,0.97,0.28,1.33c0.34,0.2,0.61,0.5,0.91,0.75c0.57,0.48,0.52,1.28,0.99,1.86c0.24,0.29-0.54,0.57-0.86,0.83
		c-0.65,0.53-0.34,0.82,0.22,0.96c0.96,0.25,1.12,0.89,1.03,1.74c-0.03,0.27-0.06,0.56-0.01,0.82c0.33,1.66,0.29,3.22-0.93,4.59
		c-0.74,0.84-0.81,1.8,0.03,2.68c0.63,0.66,0.83,1.45,0.68,2.32c-0.22,1.28-0.45,2.57-0.73,3.84c-0.2,0.91-0.75,1.78-0.89,2.62
		c-0.29,1.73-1.23,3.1-2.04,4.51c-1.2,2.09-2.99,3.72-4.93,5.16c-0.22,0.16-0.42,0.46-0.71,0.35c-0.38-0.14-0.09-0.49-0.12-0.74
		c-0.05-0.43-0.06-0.87-0.15-1.3c-0.35-1.68-0.66-3.36-0.79-5.08c-0.08-1,0.22-1.8,0.88-2.5c0.39-0.41,1.1-0.81-0.04-1.2
		c-0.29-0.1-0.15-0.42-0.04-0.62c0.28-0.51,0.03-0.9-0.24-1.32c-0.66-1.03-0.41-2.64,0.54-3.44c0.33-0.28,0.69-0.63,0.16-0.93
		c-0.87-0.49-0.94-1.42-0.66-1.96c0.71-1.35,0.45-2.58,0.04-3.86c-0.19-0.58,0.55-0.9,0.37-1.45c-0.46-1.39-0.4-2.83-0.45-4.26
		c-0.04-1.24,0.72-2.58-0.35-3.73c-0.04-0.04-0.01-0.16-0.01-0.23c0.03-1.37-0.43-2.69-0.44-4.08c-0.01-1.05-0.14-2.25-0.44-3.21
		c-0.47-1.49-0.68-3.02-1.06-4.51c-0.16-0.63-0.08-1.1,0.65-1.29c0.28-0.07,0.74-0.03,0.68-0.49c-0.05-0.37-0.46-0.4-0.75-0.5
		c-0.45-0.16-1.19-0.32-1.12-0.75c0.18-1.13-0.75-1.82-0.88-2.82c-0.11-0.82-0.13-1.7-0.63-2.58c-0.07,0.28-0.13,0.42-0.14,0.57
		c-0.43,6.61-0.83,13.23-0.98,19.85c-0.1,4.51-0.06,9.03,0.19,13.54c0.3,5.39,0.93,10.73,2.14,15.99c0.25,1.09,0.76,2.12,0.9,3.21
		c0.17,1.31,1.17,1.64,2.06,2c0.9,0.37,1.7-0.07,2.25-0.91c0.2-0.31,0.27-0.84,0.84-0.65c0.61,0.2,0.77,0.82,0.96,1.3
		c0.18,0.47-0.36,0.63-0.7,0.81c-1.6,0.81-3.24,1.33-5.07,0.89c-0.64-0.15-1.16-0.02-1.34,0.79c-0.17,0.79,0.33,0.96,0.88,1.16
		c2.07,0.75,4.19,1.32,6.33,1.81c0.55,0.13,0.79,0.11,0.83-0.53c0.09-1.42,0.79-2.67,1.22-3.99c0.27-0.82,0.78-1.61,1.76-1.76
		c0.97-0.15,1.7,0.34,2.21,1.13c0.21,0.33,0.44,0.67,0.57,1.04c0.66,1.81,0.88,3.72,1.21,5.59c0.87,4.82,1.3,9.69,1.69,14.57
		c0.26,3.24,0.47,6.49,0.48,9.75c0,1.26-0.2,2.53,0.21,3.79c0.16-1.49,0-3.01,0.19-4.48c0.37-2.91,0.24-5.85,0.63-8.76
		c0.34-2.54,0.51-5.12,0.82-7.67c0.45-3.73,1.24-7.41,1.87-11.12c0.48-2.8,1.39-5.42,3.2-7.66c0.48-0.59,0.44-1.26,0.37-1.94
		c-0.42-3.96-0.85-7.92-1.28-11.89c0,0.79,0,1.59,0,2.38c0.01,2.86-0.37,5.65-1.36,8.34c-0.98,2.66-2.71,4.57-5.44,5.51
		c-1.21,0.42-1.9-0.04-2.02-1.35c-0.08-0.87,0.17-1.66,0.53-2.43c1.78-3.77,2.38-7.75,2.13-11.88c-0.21-3.47-0.91-6.88-1.33-10.33
		c-0.17-1.42-0.36-2.8-2.27-2.81C364.52,123.45,364.47,123.34,364.39,123.23z M360.77,107.3c-0.09,0.07-0.18,0.15-0.27,0.22
		c1.77,3.1,3.54,6.21,5.32,9.31c0.09,0.17,0.17,0.38,0.43,0.32c0.47-0.11,0.86-1.5,0.52-1.88c-1.11-1.2-2.01-2.57-2.96-3.89
		C362.81,110.01,361.79,108.66,360.77,107.3z"/>
	<path d="M62.63,86.54c1.76,5.42,3.48,10.83,5.59,16.09c0.13-0.03,0.27-0.07,0.4-0.1c-0.32-1.31-0.65-2.62-0.97-3.93
		c-0.65-2.6-1.27-5.2-1.48-7.88c-0.03-0.45-0.05-0.97,0.53-1.04c0.48-0.05,0.96,0.13,1.15,0.67c1.24,3.46,3.07,6.66,4.45,10.06
		c1.7,4.18,3.03,8.49,4.59,12.72c0.37,1.01,0.85,1.98,1.26,2.97c0.26,0.63,0.42,0.7,1.07,0.22c1.65-1.22,2.35-3.09,3.45-4.67
		c3.45-4.94,7.19-9.69,10.34-14.83c1.2-1.96,2.52-3.9,2.92-6.24c0.04-0.24,0.12-0.49,0.41-0.51c0.26-0.02,0.45,0.19,0.55,0.4
		c0.27,0.57,0.17,1.18,0.07,1.77c-0.22,1.35-0.65,2.66-1.31,3.84c-0.47,0.83-0.28,1.29,0.45,1.72c0.69,0.41,1.38,0.83,2.17,0.95
		c0.8,0.12,1.44,0.02,1.26-1.14c-0.43-2.76-0.73-5.54-1.31-8.28c-0.81-3.83-1.85-7.6-2.91-11.36c-1.36-4.8-2.18-9.7-2.85-14.65
		c2.5,6.65,4.51,13.46,6.57,20.27c0.37-0.88,0.37-1.75,0.36-2.68c-0.04-4.23,0.12-8.47,0.04-12.7c-0.11-6.02-0.2-12.04-0.89-18.04
		c-0.54-4.66-1.39-9.23-2.68-13.73c-1.27-4.44-3-8.65-5.94-12.3c-2.35-2.92-5.17-4.89-9.02-5.33c-4.84-0.55-9.5-0.25-13.78,2.35
		c-1.64,1-3.14,2.19-4.35,3.72c-0.5,0.63-0.38,0.94,0.3,1.25c1.12,0.52,2.24,1.06,3.33,1.64c1.89,1,2.23,1.99,1.43,4.03
		c-0.56,1.41-1.15,2.81-1.64,4.24c-1.02,2.98-0.93,5.74,1.45,8.2c1.75,1.81,2.98,3.99,3.44,6.56c-1.75-2.25-2.91-4.94-5.23-7.12
		c-0.41,3.3-0.68,6.27,1.94,8.63c0.7,0.63,0.9,1.4,0.4,2.26c-0.09,0.16-0.26,0.34-0.42,0.37c-0.22,0.03-0.32-0.21-0.36-0.41
		c-0.19-0.92-0.83-1.51-1.46-2.14c-1.77-1.77-2.28-4.02-2.12-6.4c0.21-2.98,0.14-5.99,0.86-8.93c0.44-1.8,1.16-3.48,1.86-5.17
		c0.93-2.23,0.67-2.9-1.55-3.9c-0.73-0.33-1.46-0.67-2.13-1.09c-0.86-0.54-1.39-0.37-1.96,0.47c-2.21,3.26-3.94,6.75-5.42,10.38
		c-2.95,7.24-4.73,14.82-6.36,22.43c-1.25,5.86-1.96,11.8-2.76,17.74c-1.49,10.92-1.56,21.89-1.47,32.89
		c0.04,4.93,0.7,9.79,1.05,15.02c0.4-4.09,0.61-7.87,1.23-11.62c0.75-4.56,2.08-8.92,3.69-13.22c1.72-4.6,4.03-8.97,5.41-13.69
		c1.85-6.33,1.84-12.6-1.05-18.7c-0.25-0.52-0.62-0.92-0.98-1.34c-0.35-0.41-0.79-0.76-0.99-1.53c1.91,1.31,2.94,3.04,3.66,4.94
		c1.91,5.03,2.17,10.27,1.84,15.58c-0.39,6.43-2.31,12.54-3.88,18.73c-1.13,4.46-1.83,8.99-2.27,13.56
		c-0.73,7.55-1.01,15.12-0.65,22.7c0.17,3.5,0.02,7.03,0.65,10.51c0.19,1.03,0.56,1.62,1.68,1.8c1.21,0.2,2.39,0.64,3.58,0.99
		c0.23,0.07,0.51,0.18,0.45,0.47c-0.06,0.27-0.35,0.31-0.59,0.29c-0.72-0.07-1.43-0.23-2.14-0.23c-0.54,0-1.25-0.64-1.62,0.34
		c-0.06,0.16-0.3,0.03-0.42-0.07c-1.61-1.28-3.61-1.18-5.48-1.48c-6.39-1.02-12.71-2.47-19.08-3.57c-1.47-0.25-2.95-0.53-4.51-0.17
		c3.47,1.16,6.91,2.41,10.42,3.47c6.23,1.88,12.59,3.34,18.73,5.55c3.61,1.3,7.18,2.71,10.69,4.26c0.87,0.38,0.91,0.87,0.35,1.57
		c-0.69,0.86-1.34,1.43-2.59,0.85c-8.8-4.13-18.27-6.28-27.48-9.18c-3.93-1.24-7.71-2.87-11.55-4.36c-2.01-0.78-4.03-1.52-6.04-2.3
		c-0.42-0.16-1.05-0.26-0.87-0.92c0.17-0.62,0.6-0.91,1.33-0.95c7.41-0.38,14.6,0.91,21.78,2.53c3.57,0.81,7.22,1.27,11.08,1.93
		c-1.57-1.89-2.8-3.72-3.42-5.89c-0.07-0.23-0.18-0.45-0.24-0.68c-1.9-8.47-4.33-16.83-5.02-25.57c-0.63-8.02-0.81-16.04-0.56-24.06
		c0.23-7.22,0.96-14.41,1.92-21.58c0.71-5.3,1.47-10.6,2.62-15.82c1.46-6.67,2.99-13.31,5.25-19.78c1.81-5.19,4.25-10.04,7.23-14.67
		c5.03-7.82,13.66-10.3,21.26-9.26c4.02,0.55,7.81,1.77,11.26,3.84c4.36,2.62,7.17,6.61,9.28,11.15c2.03,4.37,3.28,8.98,4.34,13.65
		c0.46,2.06,0.58,4.18,0.95,6.25c0.69,3.89,0.84,7.81,1.03,11.73c0.11,2.19,0.06,4.39,0.1,6.59c0.01,0.72-0.68,1.19-0.51,2.01
		c0.73,3.58,0.54,7.22,0.49,10.84c-0.06,3.95-0.06,7.91-0.27,11.86c-0.48,8.92-0.84,17.85-1.64,26.75
		c-0.39,4.41-0.47,8.88-1.28,13.22c-1.12,5.98-1.4,12.16-3.84,17.86c-0.27,0.64-0.56,1.28-0.94,2.14c1.22-0.86,1.37-2.21,2.38-3.1
		c0.08,1-0.36,1.76-0.46,2.74c2.76-0.32,5.45-0.6,8.13-0.96c2.13-0.29,4.27-0.63,6.38-1.06c1.31-0.27,2.29,0.56,3.43,0.81
		c0.39,0.09,0.36,0.52,0.19,0.81c-0.28,0.48-0.62,0.97-1.18,1.13c-3.96,1.1-7.43,3.33-11.22,4.82c-4.02,1.58-7.96,3.36-12.21,4.25
		c-0.75,0.16-1,0.41-0.71,1.22c0.98,2.7,1.57,5.52,2.2,8.32c1.25,5.61,2.67,11.17,4.32,16.68c2.36,7.88,4.73,15.75,6.72,23.73
		c0.19,0.75,0.45,1.89-0.23,2.2c-0.78,0.35-1.14-0.79-1.53-1.38c-2.48-3.81-4.65-7.79-6.57-11.92c-2-4.3-4.3-8.46-6.45-12.7
		c-2.93-5.76-5.87-11.52-8.51-17.43c-1.36-3.05-2.62-6.14-4.42-9.28c-0.59,4.3-1.18,8.35-1.71,12.41
		c-0.81,6.22-0.99,12.49-1.39,18.75c-0.18,2.91-0.19,5.83-0.31,8.74c-0.24,5.91-0.82,11.78-1.73,17.62
		c-0.1,0.63-0.28,1.42-1.05,1.37c-0.81-0.06-1.7-0.32-1.87-1.38c-0.34-2.21-0.76-4.41-0.97-6.63c-0.37-3.9-0.38-7.82-0.5-11.73
		c-0.26-8.3-0.57-16.6-1.11-24.89c-0.18-2.69,0-5.41-0.73-8.24c-1.24,1.73-2.08,3.53-2.96,5.29c-2.03,4.07-3.86,8.24-5.43,12.52
		c-1.43,3.9-2.43,7.93-3.51,11.94c-1.61,6.02-2.6,12.17-3.79,18.28c-0.4,2.07-0.56,4.19-0.81,6.29c-0.08,0.72-0.21,1.5-1.11,1.35
		c-0.78-0.13-1.77-0.39-1.6-1.56c0.73-4.91,0.67-9.87,1.18-14.8c0.45-4.37,0.78-8.75,1.36-13.1c0.64-4.79,1.25-9.58,1.94-14.36
		c0.69-4.82,1.4-9.64,2.4-14.4c0.13-0.62,0.06-1.65,0.95-1.55c0.97,0.12,0.67,1.11,0.59,1.79c-1.09,9.32-2.19,18.63-3.29,27.95
		c-0.11,0.95-0.17,1.91-0.14,2.89c0.38-1.34,0.77-2.67,1.14-4.01c2.56-9.51,6.62-18.37,11.64-26.82c0.12-0.21,0.25-0.41,0.37-0.61
		c0.28-0.48,0.48-1.13,1.19-0.94c0.74,0.19,1.52,0.27,1.83,1.27c0.6,1.92,1,3.88,1.12,5.87c0.33,5.22,0.56,10.45,0.77,15.67
		c0.27,6.9,0.49,13.81,0.73,20.71c0.01,0.23,0.05,0.46,0.27,0.72c0.1-0.71,0.26-1.42,0.28-2.14c0.21-6.35,0.58-12.69,1.04-19.02
		c0.51-6.92,0.92-13.86,2.2-20.71c0.37-1.99,0.55-4.03,0.86-6.04c0.11-0.7,0.12-1.64,0.9-1.82c0.87-0.2,1.69,0.27,2.29,1
		c1.24,1.5,1.92,3.32,2.71,5.05c3.18,6.93,6.33,13.87,9.78,20.66c1.88,3.7,3.86,7.35,5.83,11c0.16,0.3,0.27,0.95,0.72,0.79
		c0.52-0.18,0.28-0.74,0.16-1.16c-1.14-3.87-2.3-7.73-3.41-11.61c-1.41-4.95-2.5-9.98-3.66-15c-0.5-2.18-1.23-4.29-2.08-6.36
		c-0.12-0.29-0.27-0.58-0.46-0.83c-0.75-0.98-0.38-1.91,0.87-2.11c2.53-0.41,4.99-1.11,7.4-1.97c0.58-0.21,1.15-0.36,0.95-1.23
		c-0.19-0.82-0.76-0.89-1.37-0.74c-1.83,0.44-3.47-0.12-5.07-0.91c-0.34-0.17-0.88-0.35-0.66-0.83c0.22-0.47,0.35-1.1,0.99-1.28
		c0.5-0.14,0.58,0.31,0.76,0.6c0.55,0.9,1.37,1.36,2.33,0.97c0.89-0.37,1.86-0.74,2.03-2.04c0.14-1.09,0.65-2.12,0.9-3.21
		c1.18-5.07,1.78-10.22,2.11-15.4c0.3-4.71,0.31-9.42,0.21-14.14c-0.15-6.59-0.55-13.16-0.97-19.74c-0.01-0.19,0.02-0.41-0.24-0.54
		c-0.58,1.46-0.29,3.2-1.48,4.44c0.54,1.34-0.57,1.38-1.33,1.7c-0.22,0.09-0.49,0.18-0.49,0.46c0,0.3,0.28,0.35,0.52,0.39
		c0.92,0.17,0.99,0.74,0.79,1.51c-0.37,1.46-0.73,2.94-1.02,4.39c-0.23,1.12-0.57,2.38-0.48,3.57c0.1,1.45-0.57,2.78-0.43,4.21
		c0.03,0.28-0.12,0.54-0.37,0.71c-0.54,0.36-0.74,0.74-0.1,1.2c0.21,0.15,0.31,0.38,0.26,0.63c-0.31,1.61,0.05,3.28-0.5,4.86
		c-0.12,0.36-0.17,0.69,0.13,1c0.1,0.1,0.13,0.28,0.16,0.44c0.2,0.98-0.98,1.98-0.6,2.54c0.57,0.85,0.7,1.58,0.66,2.49
		c-0.02,0.4-0.1,0.7-0.45,0.9c-0.78,0.46-0.48,0.82,0.08,1.23c0.72,0.52,1.02,2.33,0.54,3.09c-0.34,0.55-0.78,1.05-0.33,1.74
		c0.05,0.08,0.05,0.31,0,0.33c-1.63,0.77-0.05,1.25,0.21,1.74c0.29,0.54,0.54,1.03,0.52,1.67c-0.04,1.69-0.31,3.34-0.7,4.97
		c-0.21,0.85-0.26,1.7-0.22,2.75c-1.84-1.18-3.34-2.47-4.57-4.03c-1.48-1.87-2.45-3.97-3.3-6.23c-0.71-1.87-0.89-3.81-1.49-5.67
		c-0.33-1.01-0.31-2.14,0.56-3.04c0.88-0.91,0.8-1.9,0.02-2.78c-1.2-1.35-1.21-2.88-0.88-4.49c0.07-0.33,0.01-0.63-0.02-0.94
		c-0.09-0.8,0.09-1.41,0.99-1.65c0.48-0.13,0.98-0.34,0.29-0.94c-0.33-0.29-1.19-0.54-0.89-0.94c0.42-0.56,0.43-1.3,0.95-1.76
		c0.32-0.29,0.65-0.58,1.01-0.82c0.47-0.31,0.5-0.75,0.28-1.15c-0.4-0.71-1.11-1.33-0.37-2.23c0.03-0.04-0.11-0.29-0.22-0.37
		c-0.2-0.14-0.4-0.04-0.51,0.14c-1.12,1.84-2.31,3.64-3.3,5.55c-0.41,0.79-0.08,1.58,1.06,1.64c0.25,0.01,0.58-0.06,0.75,0.44
		c-0.05,0.02-0.15,0.12-0.26,0.12c-1.76,0.02-2.01,1.24-2.17,2.62c-0.48,4-1.35,7.95-1.4,12.01c-0.05,3.6,0.63,7.06,2.16,10.33
		c0.36,0.77,0.62,1.56,0.55,2.43c-0.12,1.4-0.79,1.82-2.11,1.35c-3.97-1.42-5.42-4.67-6.2-8.44c-0.53-2.56-0.62-5.14-0.56-7.75
		c-0.5,5.06-0.99,10.12-1.49,15.18c-0.05,0.5,0.03,1.2-0.67,1.18c-0.64-0.02-1.09-0.55-1.1-1.23c-0.03-1.6-0.12-3.21,0.04-4.79
		c0.52-4.88,0.68-9.8,1.58-14.64c0.65-3.49,1.21-7.01,2.63-10.3c0.13-0.31,0.25-0.59-0.04-0.88c-1.8-1.81-2.61-4.29-4.25-6.21
		c-0.64-0.75-0.92-0.83-1.33,0.15c-0.38,0.9-0.65,1.89-1.42,2.58c-0.23,0.21-0.01,0.44,0,0.66c0.03,1.13-0.07,2.25-0.93,3.08
		c-0.62,0.6-0.5,1.42-0.38,2c0.31,1.55-0.45,2.9-0.55,4.35c-0.07,0.99-0.77,1.83-0.56,2.92c0.1,0.56-0.67,0.54-1.07,0.76
		c-0.33,0.18-0.9,0.19-0.85,0.69c0.04,0.42,0.56,0.45,0.88,0.46c0.92,0.03,1.06,0.51,0.83,1.25c-0.18,0.59-0.12,1.16-0.07,1.77
		c0.11,1.15,0.03,2.31-0.51,3.39c-0.42,0.84-0.57,1.69-0.31,2.65c0.8,2.99-0.19,5.86-0.81,8.72c-0.51,2.36-0.83,4.71-0.74,7.12
		c0.01,0.23,0.06,0.48-0.29,0.82c-1.04-1.77-2.11-3.47-3.05-5.24c-0.82-1.55-1.5-3.17-2.21-4.78c-0.22-0.5-0.35-0.98-0.21-1.6
		c0.17-0.72-0.08-1.48-0.57-2.1c-0.2-0.25-0.54-0.53-0.52-0.78c0.1-1.74-0.99-3.27-0.84-5c0.06-0.75-0.05-1.52,1.09-1.77
		c0.87-0.19,0.56-0.84-0.06-1.15c-0.94-0.48-0.85-0.88-0.03-1.39c0.75-0.46,0.79-1.25,0.51-1.91c-0.27-0.62-0.27-1.22-0.31-1.84
		c-0.01-0.16-0.12-0.42-0.07-0.45c1.38-0.85,0.62-1.57-0.02-2.46c-0.57-0.8,0.24-3.77,1.09-4.5c0.32-0.27,0.28-0.59,0.19-0.87
		c-0.42-1.36-0.14-2.44,0.75-3.64c0.63-0.85,1.37-1.89,1.23-3.15c-0.02-0.15,0-0.4,0.07-0.43c0.93-0.38,0.55-0.73,0.15-1.35
		c-0.5-0.76,0.26-1.37,0.81-1.77c0.55-0.4,0.81-0.77,0.75-1.46c-0.07-0.74,0.32-1.16,1.11-0.9c0.76,0.26,1.17,0.07,1.17-0.77
		c0-0.28,0.11-0.45,0.34-0.58c0.7-0.37,0.85-0.89,0.44-1.58c-0.28-0.47-0.21-0.87,0.22-1.26c0.66-0.6,0.7-1.3,0.46-2.17
		c-1.22-4.3-2.56-8.56-3.53-12.93C62.54,88.8,62.2,87.71,62.63,86.54z M89.17,107.28c-0.69,0.27-0.87,0.74-1.14,1.11
		c-1.56,2.11-3.01,4.32-4.73,6.29c-0.96,1.1-0.69,1.71,0.21,2.57C85.5,114.01,87.35,110.76,89.17,107.28z"/>
	<path d="M149.52,59.6c4.68-1.95,9.49-3.36,14.43-4.23c5.03-0.89,10.11-1.31,15.24-1.31c7.85,0,15.58,0.87,23.14,3
		c4.07,1.15,8,2.71,11.82,4.55c4.58,2.21,8.92,4.8,12.92,7.9c4.47,3.47,8.59,7.36,11.98,11.93c0.4,0.54,1.01,0.99,1.24,1.59
		c0.75,1.94,2.16,1.82,3.79,1.49c1.75-0.35,3.46-0.3,5.05,0.72c0.54,0.34,0.91,0.22,1.45-0.37c0.7-0.75,1.38-1.58,2.2-2.24
		c0.88-0.71,1.78-0.75,2.59-0.04c0.82,0.72,0.58,1.67,0.2,2.54c-1.15,2.67-1.53,5.42-0.98,8.28c0.23,1.18,0.64,1.43,1.84,1.18
		c2.61-0.55,4.77-2.06,7.1-3.23c0.86-0.43,1.54-1.11,2.38-1.59c1.1-0.62,1.97-1.55,2.86-2.47c1.5-1.54,3.06-3.03,4.48-4.65
		c0.46-0.52,0.72-1.18,1.39-1.58c0.88-0.54,1.66-0.86,2.65-0.33c1.11,0.6,1.43,1.52,1.27,2.71c-0.25,1.97-0.49,3.94-0.71,5.91
		c-0.04,0.38-0.17,0.91,0.15,1.14c0.37,0.25,0.71-0.19,1.04-0.38c1.67-0.95,2.93-2.44,4.48-3.51c1.78-1.23,2.69-3.33,4.68-4.26
		c0.31-1.53,2-1.71,2.8-2.81c0.65-0.9,1.6-1.69,2.59-2.19c0.53-0.27,0.57-0.75,1-1.04c2.05-1.37,5.03-0.41,5.37,2.58
		c0.18,1.57,0.01,3.19,0.55,4.73c0.28,0.8,0.59,1.56,1.26,2.13c0.2,0.17,0.38,0.43,0.46,0.68c0.33,1.01,1.16,1.57,1.92,2.19
		c0.17,0.14,0.5,0.29,0.64,0.21c0.96-0.51,1.89-0.04,2.81,0.04c2.78,0.26,5.16-0.78,7.46-2.14c0.3-0.18,0.54-0.48,1.15-0.45
		c-1.28,2.23-2.34,4.46-3.85,6.45c-1.32,1.74-3.43,2.4-4.95,3.84c-0.16,0.15-0.43,0.24-0.65,0.28c-3.06,0.42-5.96,0.02-8.56-1.79
		c-0.12-0.08-0.2-0.23-0.39-0.46c0.7-0.08,0.97,0.5,1.7,0.66c-0.68-0.75-1.11-1.49-1.76-1.9c-1.79-1.13-2.39-2.68-2.12-4.71
		c0.05-0.36-0.13-0.77-0.27-1.13c-0.64-1.66-0.23-3.38-0.34-5.07c-0.05-0.86-0.33-1.11-1.05-0.47c-1.62,1.45-3.24,2.9-4.87,4.34
		c-2.55,2.23-5.08,4.48-7.81,6.49c-0.97,0.71-2.1,1.17-3.21,1.55c-1.65,0.56-3.31-0.57-3.69-2.37c-0.29-1.35-0.06-2.69,0.03-4.04
		c0.03-0.38,0.3-0.76-0.01-1.25c-1.38,0.64-2.11,1.99-3.17,2.96c-3.04,2.81-6.14,5.54-9.77,7.58c-1.47,0.83-3.02,1.52-4.78,1.61
		c-1.86,0.1-3.22-0.81-4.34-2.08c-1.27-1.43-2.35-3.03-2.78-4.95c-0.12-0.55-0.38-0.4-0.65-0.19c-0.75,0.59-1.49,1.19-2.21,1.81
		c-0.42,0.36-0.26,0.8-0.07,1.21c1.93,4.2,2.93,8.67,3.68,13.18c1.1,6.58,1.67,13.18,0.26,19.82c-1.02,4.81-2.96,9.21-5.44,13.41
		c-3.08,5.22-6.92,9.85-11.21,14.09c-1.26,1.24-2.51,2.63-4.14,3.51c-0.4,0.21-0.66,0.69-0.99,1.04c-0.16,0.17-0.31,0.4-0.51,0.49
		c-1.69,0.69-2.95,1.92-4.3,3.11c-1.73,1.53-3.77,2.75-5.91,3.74c-1.38,0.64-2.86,1.09-4.13,1.99c-0.45,0.31-0.52,0.55-0.48,1.05
		c0.35,4.95,0.28,9.89-0.63,14.77c-1.48,7.98-4.52,15.34-9.57,21.75c-3.76,4.77-8.21,8.82-13.5,11.9c-2.7,1.57-5.42,3.15-8.41,4.03
		c-3.01,0.88-6.08,1.83-9.26,1.68c-3.38-0.16-6.79-0.41-9.89-1.93c-1.16-0.57-2.19-1.49-3.28-2.18c-1.65-1.04-3.06-2.27-4.42-3.62
		c-1.36-1.35-2.15-3.12-3.51-4.46c-0.03-0.03-0.04-0.07-0.05-0.11c-0.59-1.84-1.71-3.46-2.25-5.32c-0.88-3.05-1.15-6.21-1.34-9.34
		c-0.09-1.49-0.45-3.09-0.01-4.52c0.56-1.82,0.59-3.7,1.01-5.53c0.45-1.94,0.94-3.86,1.6-5.73c0.62-1.75,1.41-3.52,2.64-4.84
		c1.14-1.22,1.76-2.68,2.9-3.93c-1.49-0.48-2.83-0.85-4.12-1.35c-2.73-1.06-5.44-2.19-8.15-3.29c-0.07-0.03-0.17-0.04-0.22-0.09
		c-0.82-0.95-2.09-1.15-3.04-1.8c-1.39-0.95-2.88-1.73-4.27-2.68c-2.73-1.89-5.29-3.98-7.66-6.3c-1.71-1.67-3.33-3.43-4.45-5.58
		c-0.6-1.16-1.59-2.05-2.27-3.14c-0.92-1.49-1.55-3.16-2.05-4.83c-1.01-3.38-1.65-6.85-1.58-10.4c0.03-1.41-0.05-2.84,0.36-4.24
		c0.8-2.74,1.12-5.62,2.2-8.29c1.82-4.47,4.31-8.49,7.88-11.78c0.34-0.31,0.37-1.38,1.28-0.7c0.02,0.01,0.16-0.07,0.16-0.11
		c-0.05-1.6,1.48-1.91,2.35-2.59c1.7-1.32,3.59-2.42,5.44-3.56c5.32-3.28,11.25-4.67,17.23-6.02c4.13-0.94,8.33-1.39,12.55-1.5
		c4.17-0.11,8.32,0.33,12.47,0.85c2.29,0.29,4.6,0.07,6.89-0.24c3.63-0.5,7.26-0.98,10.89-1.49c1.49-0.21,2.68-0.77,3.68-2.07
		c2.19-2.87,5.27-4.64,8.42-6.31c1.85-0.98,3.78-1.67,5.79-2.15c1.18-0.28,2.39-0.18,3.43,0.49c1.34,0.87,1.53,2.64,0.58,4.09
		c-0.98,1.48-2.33,2.56-3.86,3.33c-4.42,2.21-8.92,4.23-13.74,5.45c-1.24,0.32-1.55,1.85-0.73,3.25c0.96,1.65,2.43,2.4,4.26,2.31
		c3.23-0.18,6.35-0.83,9.41-2.01c3.98-1.54,7.59-3.84,11.55-5.39c0.95-0.37,1.36-1.22,1.96-1.87c2.66-2.89,5.88-4.92,9.49-6.38
		c1.97-0.79,2.02-0.82,0.74-2.53c-2.51-3.37-5.33-6.45-8.43-9.28c-3.91-3.55-8.15-6.67-12.77-9.19c-7.1-3.88-14.58-6.71-22.61-8.08
		c-4.96-0.85-9.95-1.31-14.96-1.3c-7.98,0.02-15.87,0.95-23.54,3.33c-2.7,0.84-5.29,1.98-7.88,3.13c-0.77,0.34-1.52,0.64-2.2-0.09
		c-0.69-0.74-0.34-1.51,0.08-2.21c1.13-1.86,2.73-3.3,4.31-4.75c3.32-3.03,7.21-5.19,11.16-7.26c5.33-2.8,10.83-5.18,16.65-6.77
		c4.08-1.12,8.2-1.68,12.39-0.68c3.09,0.74,5.44,2.56,7.2,5.17c0.69,1.02,1.38,2.06,1.59,3.31c0.11,0.68,0.45,1.57-0.41,1.92
		c-0.83,0.34-1.28-0.46-1.67-1.04c-0.8-1.19-1.49-2.46-2.34-3.61c-1.84-2.5-4.54-3.42-7.47-3.55c-6.86-0.3-13.08,2.16-19.18,4.89
		c-5.73,2.55-11.19,5.58-16.23,9.34C151.12,57.84,150.2,58.6,149.52,59.6z M184.51,170.24c5.09-0.26,8.76-0.88,12.35-1.87
		c3.73-1.04,7.44-2.15,10.87-4.03c1.13-0.62,1.43-1.05,1.12-2.33c-0.09-0.38-0.21-0.77-0.27-1.16c-0.55-3.4-1.26-6.79-2.32-10.04
		c-1.24-3.8-2.61-7.56-4.37-11.19c-2.46-5.07-5.34-9.85-8.71-14.36c-2.59-3.47-5.56-6.58-8.83-9.4c-3.56-3.07-7.53-5.47-11.97-7.07
		c-2.93-1.06-5.93-1.71-9.06-1.7c-2.54,0.01-4.05,1.25-4.37,3.65c-0.24,1.85-0.23,3.71-0.11,5.57c0.27,4.09,0.56,8.18,0.85,12.27
		c0.27,3.81,0.56,7.62,0.83,11.43c0.31,4.45,0.63,8.9,0.9,13.36c0.06,0.9,0.13,1.82-0.25,2.7c-0.23,0.52-0.52,0.88-1.14,0.88
		c-0.63,0-0.82-0.46-0.9-0.93c-0.13-0.74-0.34-1.46-0.37-2.23c-0.15-3.22-0.34-6.43-0.55-9.64c-0.35-5.24-0.74-10.49-1.11-15.73
		c-0.22-3.14-0.61-6.27-0.64-9.41c-0.03-3.25-0.66-6.52,0.37-9.76c0.91-2.89,2.88-4.37,5.68-4.55c4.24-0.27,8.24,0.74,12.09,2.38
		c8.45,3.61,15.14,9.47,20.87,16.54c3.45,4.26,6.27,8.9,8.76,13.76c1.18,2.3,2.17,4.68,3.19,7.05c1.47,3.45,2.6,7.01,3.57,10.62
		c0.55,2.04,0.96,4.11,1.45,6.16c0.08,0.35,0.12,0.92,0.74,0.53c2.05-1.28,4.16-2.47,6.16-3.83c0.68-0.46,1.15-1.11,1.92-1.54
		c2.23-1.26,3.93-3.27,5.96-4.83c1.64-1.26,2.8-2.98,4.25-4.43c3.77-3.77,6.74-8.17,9.29-12.81c1.72-3.12,3.23-6.36,4.44-9.74
		c0.89-2.47,1.7-4.97,2.26-7.5c0.59-2.61,0.66-5.3,0.43-8.03c-0.38-4.52-1.33-8.87-2.96-13.09c-0.27-0.69-0.48-0.78-1.17-0.41
		c-3.94,2.11-7.82,4.35-12.38,4.96c-2.56,0.34-4.1-0.19-5.44-2.4c-0.26-0.43-0.42-0.18-0.65-0.04c-0.85,0.52-1.67,1.08-2.55,1.55
		c-1.82,0.98-3.78,1.66-5.7,2.41c-3.69,1.44-7.42,2.68-11.46,2.6c-4.17-0.09-7.97-2.93-7.4-7.33c0.11-0.86-0.33-0.89-0.89-0.75
		c-3.83,0.95-7.72,1.5-11.62,2.02c-2.49,0.33-4.99,0.39-7.48,0.43c-5.27,0.08-10.55-0.52-15.8,0.38c-3.28,0.56-6.56,1.12-9.79,1.96
		c-2.58,0.67-4.85,2.08-7.32,3.02c-2.88,1.1-5.63,2.48-8.11,4.27c-1.56,1.13-3.07,2.37-4.4,3.83c-2.63,2.9-5.07,5.9-6.67,9.53
		c-1.81,4.08-2.69,8.35-2.6,12.77c0.06,3.06,0.78,6.02,1.9,8.93c1.71,4.45,4.42,8.12,7.84,11.31c2.27,2.13,4.79,3.97,7.52,5.49
		c2.05,1.15,4.09,2.37,6.27,3.21c3.1,1.19,6.08,2.68,9.44,3.26c1.31,0.23,2.68,0.86,4.04,1.26c3.72,1.08,7.57,1.57,11.4,1.88
		C176.53,170.43,181.21,170.65,184.51,170.24z M209.87,176.04c0-1.89,0-3.16,0-4.43c0-0.54-0.23-0.68-0.77-0.51
		c-1.64,0.53-3.31,1-4.95,1.53c-3.75,1.22-7.6,2-11.5,2.57c-6.35,0.93-12.7,1.33-19.13,0.69c-5.44-0.54-10.82-1.31-16.1-2.75
		c-0.53-0.15-0.71-0.06-0.83,0.39c-0.59,2.35-1.29,4.69-1.72,7.07c-0.69,3.87-1.48,7.74-1.78,11.67c-0.36,4.68-0.27,9.31,1.28,13.81
		c1.08,3.15,2.57,6.08,5.06,8.33c3.9,3.52,8.61,4.7,13.76,4.63c4.37-0.06,8.47-1.15,12.41-2.96c1.44-0.66,3.03-1.27,4.17-2.21
		c1.52-1.25,3.17-2.3,4.74-3.45c1.64-1.21,2.94-2.74,4.21-4.21c1.32-1.53,2.83-3.04,3.58-5.01c0.3-0.79,1.47-0.86,1.46-1.7
		c-0.01-0.76,0.36-1.27,0.66-1.85c1.42-2.69,2.7-5.45,3.47-8.4c0.58-2.25,1.18-4.52,1.51-6.81
		C209.75,180.13,210.13,177.79,209.87,176.04z M230.12,97.75c0.16-0.01,0.32-0.02,0.48-0.04c4.36-0.57,8.09-2.52,11.54-5.15
		c0.91-0.69,0.89-1.22,0.36-2.03c-0.43-0.67-0.82-1.37-1.19-2.07c-0.34-0.66-0.8-0.64-1.39-0.38c-2.66,1.19-5.25,2.51-7.52,4.35
		c-1.17,0.95-2.36,1.9-3.2,3.18c-0.33,0.5-0.64,1.09-0.37,1.68C229.06,97.78,229.65,97.69,230.12,97.75z M203.31,92.4
		c0.5,0.02,0.74,0.07,0.96,0.04c2.22-0.27,4.36-0.86,6.42-1.73c1.86-0.79,3.78-1.48,5.32-2.85c0.64-0.58,1.84-1.17,1.36-2.11
		c-0.46-0.91-1.71-0.49-2.53-0.2C210.63,87.01,206.76,89.06,203.31,92.4z M245.56,86.9c-0.49-0.1-0.95,0.1-1.41,0.18
		c-0.3,0.05-0.67-0.07-0.84,0.31c-0.11,0.27,1.19,2.57,1.5,2.62c0.28,0.05,0.56,0,0.76-0.24c0.52-0.64,1.11-1.19,1.89-1.54
		c0.28-0.12,0.55-0.41,0.51-0.74c-0.04-0.4-0.44-0.41-0.75-0.44C246.67,86.99,246.11,86.95,245.56,86.9z"/>
	<path d="M309.97,162.28c-0.82,1.3-1.65,2.58-2.44,3.89c-1.25,2.08-2.6,4.09-4.22,5.91c-1.71,1.91-4.16,2.63-6.13,1.65
		c-1.89-0.94-2.93-2.63-3.55-4.59c-0.12-0.37-0.07-0.91-0.52-0.99c-0.43-0.08-0.59,0.46-0.85,0.74c-1.53,1.72-2.98,3.49-5.04,4.68
		c-3.52,2.02-6.08,1.37-7.92-2.23c-0.41-0.8-0.65-0.69-1.11-0.03c-1.32,1.9-3.03,3.45-5.13,4.37c-2.29,1-5.23,0.42-7.32-2.26
		c-0.59-0.76-0.99-1.62-1.42-2.47c-0.51-1-0.89-0.98-1.46-0.01c-0.69,1.18-1.6,2.17-2.49,3.19c-1.22,1.39-2.81,2.21-4.45,2.92
		c-1.22,0.53-2.52,0.35-3.73-0.16c-1.7-0.73-3.04-1.9-3.86-3.58c-0.47-0.96-0.89-1-1.66-0.25c-2.6,2.5-5.47,4.57-8.86,5.96
		c-2.18,0.89-4.35,1.66-6.7,1.9c-5.04,0.52-10.69-2.91-11.6-8.24c-0.16-0.93-0.11-1.91,0.52-2.74c0.61-0.8,1.2-0.82,1.56,0.11
		c0.34,0.89,0.75,0.95,1.34,0.33c2.67-2.82,6-4.25,9.81-4.44c3.17-0.16,7.29,1.87,7.59,5.04c0.07,0.71-0.12,1.33-0.3,1.99
		c-0.06,0.2-0.25,0.49,0.02,0.65c0.2,0.12,0.46,0.06,0.67-0.09c1.29-0.99,2.78-1.81,3.82-3.02c1.08-1.26,2.34-2.53,2.49-4.4
		c0.09-1.17,0.75-2.08,1.94-2.3c0.91-0.17,1.56,0.44,2.01,1.23c0.31,0.54,0.19,1.09,0.01,1.62c-0.59,1.75-0.41,3.44,0.35,5.11
		c0.81,1.77,2.61,2.48,4.37,1.61c1.54-0.77,2.6-2.02,3.54-3.48c0.42-0.66,0.58-1.58,1.47-1.96c0.25-0.11,0.43-0.58,0.5-0.91
		c0.24-1.18,1.17-1.89,1.96-2.57c1.04-0.89,2.66-0.24,3.2,1.46c0.54,1.66,0.86,3.39,1.74,4.93c0.5,0.87,1.18,1.72,2.2,1.63
		c1.34-0.12,2.78-0.21,3.63-1.66c0.38-0.65,0.93-1.27,1.41-1.86c1.01-1.23,1.34-2.76,2.16-4.05c0.58-0.92,1.23-1.59,2.33-1.48
		c1.22,0.11,1.73,0.82,1.92,2.21c0.21,1.53,0.25,3.07,0.85,4.55c0.4,1,1,1.07,1.77,0.8c1.2-0.41,2.27-1.04,3.18-1.96
		c0.96-0.97,2.03-1.83,2.94-2.84c0.93-1.04,1.62-2.26,2-3.62c0.28-0.99,0.98-1.37,1.9-1.21c0.95,0.16,1.55,0.73,1.53,1.82
		c-0.02,1.91,0.17,3.75,0.86,5.59c1.07,2.86,2.42,2.73,4.51,1.23c1.49-1.07,2.65-2.56,3.69-4.14c1.69-2.57,3.22-5.25,4.36-8.07
		c0.74-1.83,1.68-3.56,2.36-5.41c0.4-1.08,1.34-1.31,2.19-1.27c0.86,0.04,1.66,0.62,1.89,1.6c0.36,1.53,0.4,3.1,0.21,4.63
		c-0.55,4.7-1.24,9.38-1.81,14.08c-0.46,3.83-0.86,7.67-1.24,11.52c-0.68,6.81-1.27,13.63-2,20.44c-0.2,1.84-0.68,3.66-1.71,5.3
		c-0.62,1-0.96,2.17-1.44,3.26c-0.09,0.2-0.13,0.51-0.44,0.49c-0.24-0.02-0.31-0.25-0.3-0.45c0.03-2.76-1.09-5.36-1.07-8.12
		c0.01-0.82-0.14-1.65-0.08-2.47c0.19-2.61,0.38-5.21,0.81-7.8c0.12-0.72,0.12-1.51,0.08-2.24c-0.15-2.64,0.68-5.16,0.86-7.77
		c0.15-2.22,0.53-4.5,0.74-6.72c0.28-2.88,0.83-5.73,1.04-8.62c0.15-1.97,0.52-3.89,0.86-5.83
		C310.17,162.36,310.07,162.32,309.97,162.28z M232.85,169.45c-2.67-0.02-4.97,0.97-6.95,2.68c-0.75,0.65-1.21,1.59-0.94,2.67
		c0.24,0.94,0.98,1.22,1.86,1.42c3.17,0.72,5.94-0.18,8.5-1.98c1.13-0.8,1.41-2.12,1.24-3.26c-0.16-1.04-1.41-1.25-2.42-1.38
		C233.71,169.54,233.28,169.5,232.85,169.45z"/>
	<path d="M324.64,25.41c2.49,1.85,4.75,3.73,6.38,6.23c1.74,2.68,2.51,5.51,1.61,8.74c-0.86,3.09-4.28,3.65-6.37,3.07
		c-4.78-1.31-7.81-4.84-10.72-8.52c-1.09-1.37-1.99-2.9-3.86-3.53c-1.78-0.6-2.63-2.24-2.92-3.96c-0.21-1.26-0.63-1.31-1.7-1.03
		c-3.95,1.05-7.61,2.59-10.46,5.63c-1.07,1.15-1.94,2.43-1.92,4.12c0.02,1.12,0.59,1.76,1.6,2.12c1.52,0.55,3.08,0.4,4.61,0.13
		c3.44-0.61,6.52-2,9.05-4.5c0.28-0.28,0.61-0.54,0.96-0.69c0.5-0.2,1.03-0.16,1.43,0.26c0.37,0.38,0.4,0.82,0.23,1.31
		c-0.56,1.57-1.91,2.44-3.13,3.33c-2.24,1.62-4.85,2.59-7.54,3.12c-2.45,0.48-4.92,0.53-7.31-0.65c-2.45-1.21-3.51-4.31-2.24-6.96
		c1.59-3.33,4.22-5.54,7.42-7.26c1.37-0.74,2.79-1.27,4.24-1.78c0.92-0.33,0.36-0.73,0.06-1.02c-1.45-1.41-2.54-3.08-3.37-4.91
		c-1.34-2.93-2.17-5.97-1.82-9.26c0.41-3.86,3.15-5.31,6.51-3.35c1.93,1.13,3.37,2.76,4.55,4.66c1.31,2.11,2.31,4.35,3.02,6.72
		c0.2,0.68,0.7,0.73,1.22,0.65c0.56-0.1,1.13,0.54,1.71-0.43c3-5.06,7.36-8.33,13.3-9.03c2.16-0.26,4.32,0.24,5.89,2.01
		c1.04,1.17,1.4,2.39,0.76,4.03c-1.93,4.96-5.68,8.05-10.2,10.42C325.36,25.22,325.07,25.27,324.64,25.41z M330.08,39.04
		c-0.04-2.33-0.7-4.32-1.99-6.12c-1.26-1.76-2.84-3.2-4.51-4.55c-0.47-0.38-1.19-0.8-1.11-1.33c0.25-1.85-1.1-0.9-1.76-1.08
		c-0.49-0.13-0.76,0.17-0.84,0.73c-0.31,2.16-1.41,3.78-3.44,4.68c-0.63,0.28-0.72,0.6-0.28,1.15c1.52,1.9,2.99,3.84,4.76,5.51
		c1.58,1.5,3.35,2.71,5.48,3.29C328.12,41.8,330.5,41.19,330.08,39.04z M329.84,11.3c-3.42,0.26-6.28,1.65-8.73,3.98
		c-1.29,1.23-2.41,2.64-3.83,3.75c-0.48,0.38-0.11,0.57,0.13,0.84c0.76,0.87,1.61,1.75,1.92,2.86c0.38,1.33,1.23,1.28,2.21,1.08
		c2.07-0.43,4.06-1.06,5.81-2.34c2.62-1.93,4.7-4.27,5.76-7.39c0.38-1.12-0.07-2-1.17-2.37C331.26,11.48,330.54,11.43,329.84,11.3z
		 M300.67,10.44c-0.06,2.32,0.44,4.41,1.23,6.4c1.09,2.78,2.68,5.24,5.22,6.96c1.13,0.77,1.3,0.7,1.73-0.54
		c0.48-1.37,1.07-2.7,2.3-3.56c0.7-0.49,0.63-0.95,0.4-1.62c-0.69-1.96-1.64-3.81-2.64-5.62c-1.15-2.06-2.61-3.88-4.79-5.01
		c-1.77-0.91-2.97-0.36-3.25,1.58C300.78,9.55,300.72,10.06,300.67,10.44z M311.01,25.46c0,0.36-0.03,0.72,0.01,1.07
		c0.18,1.62,1.23,2.88,2.54,3.06c1.43,0.2,3.06-0.85,3.61-2.35c0.73-1.95-0.53-5.54-2.33-6.54c-0.4-0.22-0.92-0.55-1.29,0.18
		c-0.15,0.29-0.48,0.47-0.81,0.22c-0.33-0.25-0.42-0.14-0.6,0.18C311.42,22.59,310.86,23.93,311.01,25.46z"/>
	<path d="M118.44,43.86c0.35-2.78,0.68-5.54,1.03-8.3c0.29-2.28,0.61-4.56,0.88-6.85c0.06-0.55-0.05-1.11-0.02-1.67
		c0.06-1.02-0.47-1.53-1.4-1.75c-1.86-0.43-3.72-0.85-5.57-1.29c-0.5-0.12-0.99-0.31-1.46-0.52c-0.5-0.22-1.14-0.38-1.05-1.12
		c0.07-0.64,0.63-0.86,1.15-1.09c2.55-1.12,5.33-1.26,7.98-1.92c0.58-0.14,1.15-0.32,1.7-0.53c0.92-0.35,1.36-1.02,1.38-2.02
		c0.07-2.79-0.35-5.54-0.57-8.31c-0.07-0.86,0.3-1.54,0.46-2.3c0.08-0.37,0.45-0.54,0.86-0.5c0.64,0.07,0.98,0.49,1.21,1.03
		c0.91,2.08,1.99,4.07,3.14,6.02c0.08,0.14,0.15,0.28,0.24,0.42c2.29,3.87,2.86,3.53,8.17,2.53c2.93-0.55,5.81-1.36,8.72-2
		c0.91-0.2,2.14-0.52,2.5,0.65c0.32,1.06-0.79,1.52-1.63,1.89c-3.37,1.48-6.5,3.4-9.62,5.33c-2.64,1.63-2.63,1.86-0.22,3.69
		c2.92,2.23,6.21,3.92,9.06,6.24c0.59,0.48,1.18,0.95,1.75,1.45c0.47,0.41,1.1,0.81,0.7,1.57c-0.4,0.77-1.2,0.81-1.88,0.65
		c-3.8-0.89-7.5-2.1-11.2-3.33c-1.87-0.62-3.77-1.02-5.71-1.31c-1.25-0.19-2.18,0.33-2.68,1.51c-1.6,3.73-3.18,7.47-4.78,11.19
		c-0.19,0.44-0.43,0.86-0.68,1.26c-0.4,0.66-0.84,1.37-1.77,1.08C118.26,45.31,118.52,44.48,118.44,43.86z M143.11,32.43
		c0.04-0.08,0.09-0.17,0.13-0.25c-1.22-0.8-2.41-1.64-3.66-2.38c-2.02-1.21-3.93-2.58-5.82-3.97c-1.77-1.31-1.88-2.75-0.34-4.2
		c0.72-0.68,1.5-1.3,2.36-1.83c1.57-0.98,3.15-1.94,4.75-2.92c-2.15,0.29-4.29,0.61-6.38,1.14c-3.31,0.85-5.23,0.01-7.1-3.22
		c-0.66-1.14-1.33-2.27-2-3.41c-0.21,1.26-0.13,2.4,0.1,3.54c0.56,2.91-0.73,5.05-3.54,6.03c-1.94,0.68-3.96,0.83-5.99,0.97
		c-0.89,0.06-1.77,0.19-2.66,0.29c1.91,1.04,3.94,1.4,5.98,1.63c2.08,0.23,3.12,1.37,3.05,3.5c-0.12,3.71-0.8,7.36-1.31,11.03
		c-0.12,0.88-0.36,1.75-0.07,2.89c1.3-2.69,2.18-5.29,3.16-7.85c0.47-1.23,0.71-2.6,1.73-3.58c1.46-1.4,3.21-1.42,5.04-1.07
		c2.35,0.45,4.63,1.17,6.91,1.9C139.33,31.26,141.22,31.84,143.11,32.43z"/>
	<path d="M5.43,114.11c0.04-1.23,0.42-1.66,1.73-1.51c2.46,0.3,4.82,1.05,7.12,1.95c6,2.34,10.5,6.63,14.74,11.29
		c2.14,2.36,4.27,4.73,6.14,7.31c1.49,2.07,2.8,4.25,3.67,6.67c0.46,1.28-0.61,1.93-1.25,2.45c-0.6,0.48-1.62,0.29-2.29-0.57
		c-0.53-0.68-1.01-1.3-1.07-2.19c-0.12-1.85-0.94-3.44-1.91-4.97c-1.88-2.97-3.96-5.78-6.3-8.4c-0.66-0.74-1.19-0.65-1.59,0.19
		c-0.08,0.17-0.09,0.27,0.04,0.41c1.34,1.41,1.05,2.85-0.74,3.62c-0.18,0.08-0.4,0.09-0.56,0.2c-0.78,0.5-0.76,1.18,0.04,1.61
		c1.41,0.76,2.94,1.23,4.44,1.76c0.04,0.01,0.08,0.01,0.12,0.02c0.88,0.35,2.13,0.37,2.01,1.76c-0.06,0.67-1.54,0.86-2.81,0.53
		c-4.47-1.18-7.96-3.85-11.17-7.05c-3.53-3.52-6.4-7.52-9.01-11.73C6.13,116.43,5.46,115.39,5.43,114.11z M18.4,123.54
		c0.15-1.23-0.08-2.22,0.86-2.92c0.38-0.28-0.01-0.64-0.3-0.86c-3.27-2.46-6.74-4.54-10.75-5.57c-0.39-0.1-0.91-0.46-1.22,0
		c-0.3,0.44,0.09,0.9,0.29,1.32c1.54,3.11,3.69,5.77,6.08,8.24c0.43,0.45,0.74,1.07,1.56,1.39c-0.26-0.49-0.43-0.8-0.58-1.12
		c-0.49-1-1.01-1.98-1.17-3.11c-0.08-0.57,0.08-1.05,0.54-1.36c0.5-0.34,1.07-0.32,1.57,0.02c0.36,0.24,0.71,0.49,0.99,0.85
		C16.98,121.36,17.69,122.29,18.4,123.54z"/>
	<path d="M423.41,128.8c-3.3,0.62-5.52-0.84-7.16-3.66c-1.29,2.63-2,5.2-2.61,7.81c-0.28,1.2-0.6,2.39-0.97,3.56
		c-0.2,0.61-0.58,1.23-1.36,1.1c-0.81-0.14-0.68-0.85-0.67-1.45c0.02-1.38,0.5-2.66,0.97-3.92c1.17-3.12,2.31-6.25,3.63-9.32
		c1.85-4.3,4.48-8,7.54-11.47c1.71-1.94,3.33-3.96,4.94-5.98c0.66-0.83,1.38-1.56,2.49-1.26c1.21,0.33,1.9,1.29,2.13,2.5
		c1.1,5.81-0.03,11.27-2.58,16.54c-1.57,3.24-3.35,6.32-5.64,9.09c-1.34,1.62-2.97,2.97-4.68,4.2c-0.81,0.59-1.71,1.02-2.78,0.96
		c-0.96-0.06-1.27-0.47-1.06-1.39c0.19-0.81,0.75-1.34,1.44-1.63C419.72,133.3,421.5,131.13,423.41,128.8z M422.62,113.68
		c1.29,0.31,2.09,1.07,2.93,1.7c1.74,1.3,2.27,3.15,1.6,5.16c-0.07,0.21-0.31,0.44,0.01,0.61c0.24,0.12,0.48-0.02,0.63-0.22
		c0.14-0.19,0.25-0.41,0.32-0.64c0.52-1.66,1.15-3.29,1.51-4.99c0.52-2.42,0.46-4.88,0-7.32c-0.11-0.58-0.48-0.74-0.95-0.33
		C426.6,109.5,424.62,111.43,422.62,113.68z M424.35,119.53c-0.08-1.66-0.41-3.07-1.86-4.02c-0.64-0.42-1.02-0.31-1.37,0.26
		c-0.68,1.12-1.29,2.29-2.03,3.36c-0.65,0.95-0.31,1.3,0.57,1.84c0.99,0.62,2.05,0.13,2.99,0.53c0.89,0.38,1.36,0.15,1.53-0.77
		C424.26,120.3,424.31,119.87,424.35,119.53z"/>
	<path d="M425.29,41.56c-1.77,1.03-3.6,1.15-5.42,1.05c-3.88-0.21-7.58-1.11-10.81-3.37c-3.52-2.45-5.61-5.88-6.28-10.07
		c-0.68-4.2-0.72-8.43,0.54-12.54c0.72-2.33,2.13-4.29,4.04-5.87c1.77-1.46,3.71-2.55,5.9-3.29c3.06-1.04,6.01-0.65,8.86,0.57
		c6.19,2.66,9.48,7.92,9.31,14.64c-0.13,5.18-4.86,8.9-9.93,7.89c-3.47-0.7-6.62-1.93-9.2-4.47c-3.46-3.4-3.34-7.94,1.56-10.6
		c1.97-1.07,4.02-1.39,6.22-0.72c2.69,0.82,3.53,3.2,1.77,5.38c-1.01,1.25-2.35,2.01-4.03,2.04c-0.61,0.01-1.22-0.18-1.28-0.82
		c-0.06-0.7,0.63-0.53,1.07-0.61c1.13-0.21,2.09-0.74,2.83-1.63c0.97-1.16,0.73-2.24-0.72-2.68c-2.51-0.76-4.75-0.02-6.63,1.67
		c-1.84,1.65-1.85,4.14-0.12,6.19c1.67,1.98,3.87,3.14,6.3,3.95c1.93,0.64,3.86,0.93,5.87,0.45c2.14-0.51,4.28-3.04,4.45-5.26
		c0.24-3.08-0.31-6.01-1.9-8.63c-1.39-2.28-3.45-3.9-5.88-5.08c-6.76-3.27-15.03,1.14-16.82,7.43c-1.68,5.9-1.66,11.87,2.1,17.22
		c2.2,3.12,5.35,4.77,9.03,5.58c2.5,0.55,5.09,0.33,7.57,0.95C424.19,41.04,424.7,41.08,425.29,41.56z"/>
	<path d="M25.07,18.21c0.09,3.85,0.19,7.71,0.6,11.56c0.37,3.44,0.93,6.86,0.85,10.34c-0.02,0.78,0.07,1.91-0.82,2.02
		c-1.03,0.13-1.07-1.02-1.28-1.81c-1.27-4.75-1.54-9.64-1.98-14.5c-0.37-3.99-0.34-7.99,0.13-11.99c0.03-0.27,0.1-0.55,0.18-0.81
		c0.18-0.62,0.32-1.36,1.17-1.26c0.86,0.1,1.15,0.8,1.16,1.57C25.08,14.95,25.07,16.58,25.07,18.21z"/>
	<path d="M31.61,37.9c-0.69-1.34-0.88-2.56-1.16-3.72c-1.04-4.35-0.66-8.8-0.8-13.21c-0.09-3.01-0.05-6.02,0.09-9.03
		c0.03-0.67,0.13-1.35,0.25-2.01c0.09-0.52,0.28-1.09,0.94-1.04c0.69,0.05,0.74,0.59,0.86,1.2c0.72,3.82,0.52,7.7,0.59,11.54
		c0.08,4.92,0.66,9.87-0.36,14.76C31.94,36.81,31.8,37.22,31.61,37.9z"/>
	<path d="M29.42,53.66c-0.04,0.56-0.06,1.1-0.21,1.65c-0.27,0.99-0.94,1.58-1.86,1.47c-0.89-0.11-1.4-0.94-1.44-1.82
		c-0.07-1.67,0.12-3.33,0.63-4.94c0.07-0.23,0.21-0.44,0.26-0.67c0.09-0.49-0.03-1.23,0.56-1.29c0.57-0.06,0.64,0.72,0.85,1.15
		C28.87,50.63,29.43,52.07,29.42,53.66z"/>
	<path d="M32.17,48.07c0.01-1.39,0.19-2.64,1.11-3.02c0.51-0.21,1.25,1.01,1.74,1.7c0.75,1.05,1.09,2.29,1.27,3.55
		c0.1,0.71-0.48,1.15-1.02,1.49c-0.49,0.31-0.97,0.16-1.45-0.15C32.39,50.71,32.38,49.19,32.17,48.07z"/>
</g>
</svg>
